# xmcd
#
# Track frame offsets:
#	150
#	24619
#	42481
#	63647
#	83455
#	105178
#	126002
#	146616
#	167223
#	191576
#	214165
#	233861
#	255871
#	270564
#	287948
#	307012
#	329097
#
# Disc length: 4654 seconds
#
# Revision: 0
# Processed by: cddbd v1.5.1PL0 Copyright (c) Steve Scherf et al.
# Submitted via: EasyCDDAExtractor 5.0.5.1
#
DISCID=f8122c11
DTITLE=王傑 - 不孤單
DYEAR=2004
DGENRE=Blues
TTITLE0=愛無言
TTITLE1=不孤單
TTITLE2=靈魂有罪
TTITLE3=你們
TTITLE4=舊行李
TTITLE5=真空
TTITLE6=傷心的眼角
TTITLE7=浪子 2004
TTITLE8=一封信
TTITLE9=我是真的愛上你
TTITLE10=其實早知道
TTITLE11=Am I Still Your Lover
TTITLE12=寂寞
TTITLE13=我比他好
TTITLE14=安妮
TTITLE15=沒有煙抽的日子
TTITLE16=原來的我
EXTD=
EXTT0=
EXTT1=
EXTT2=
EXTT3=
EXTT4=
EXTT5=
EXTT6=
EXTT7=
EXTT8=
EXTT9=
EXTT10=
EXTT11=
EXTT12=
EXTT13=
EXTT14=
EXTT15=
EXTT16=
PLAYORDER=
